<svg width="240" height="336" viewBox="0 0 240 336" fill="none" xmlns="http://www.w3.org/2000/svg">
  <rect x="8" y="8" width="224" height="320" rx="18" fill="#14251f" stroke="#d8ad5f" stroke-width="8"/>
  <rect x="26" y="26" width="188" height="284" rx="10" fill="#8f1d2c" stroke="#f7f0de" stroke-opacity=".55" stroke-width="3"/>
  <path d="M120 58c37 27 62 58 62 101 0 46-27 82-62 119-35-37-62-73-62-119 0-43 25-74 62-101Z" fill="#d8ad5f"/>
  <path d="M120 84c22 19 38 41 38 72 0 30-15 54-38 82-23-28-38-52-38-82 0-31 16-53 38-72Z" fill="#14251f"/>
  <circle cx="120" cy="158" r="22" fill="#f7f0de"/>
  <path d="M120 139v38M101 158h38" stroke="#8f1d2c" stroke-width="8" stroke-linecap="round"/>
  <path d="M52 54h26M52 282h26M162 54h26M162 282h26" stroke="#f7f0de" stroke-opacity=".65" stroke-width="6" stroke-linecap="round"/>
</svg>
